<svg width="24" height="24" viewBox="0 0 24 24" fill="none" xmlns="http://www.w3.org/2000/svg">
<g clip-path="url(#clip0_6874_660)">
<path d="M12 3C12.7017 3 13.3872 3.21011 14.3135 3.74121C15.2656 4.28717 16.3839 5.11817 17.9678 6.29785C18.8257 6.93682 19.4217 7.38187 19.8633 7.76953C20.2938 8.14748 20.5215 8.42391 20.668 8.69922C20.9735 9.27335 21 9.93275 21 11.9512V13.4424C21 15.4923 20.9972 16.9127 20.8291 17.9824C20.6684 19.0052 20.3763 19.5675 19.8857 19.9873C19.3726 20.4264 18.6482 20.7028 17.3721 20.8496C16.081 20.9981 14.3813 21 12 21C9.6187 21 7.91895 20.9981 6.62793 20.8496C5.35177 20.7028 4.62736 20.4264 4.11426 19.9873C3.6237 19.5675 3.33161 19.0052 3.1709 17.9824C3.00284 16.9127 3 15.4923 3 13.4424V11.9512C3 9.93275 3.02653 9.27335 3.33203 8.69922C3.47853 8.42391 3.70623 8.14748 4.13672 7.76953C4.57829 7.38187 5.17434 6.93682 6.03223 6.29785C7.61608 5.11817 8.73437 4.28717 9.68652 3.74121C10.6128 3.21011 11.2983 3 12 3Z" stroke="white" stroke-width="2"/>
</g>
<defs>
<clipPath id="clip0_6874_660">
<rect width="24" height="24" rx="12" fill="white"/>
</clipPath>
</defs>
</svg>
